<svg xmlns="http://www.w3.org/2000/svg" width="400" height="600" viewBox="0 0 400 600"><rect width="100%" height="100%" fill="#DDDDDD"/><path fill="#999999" d="M108.995 279.395h6.76v41.21h-3.93q-.92 0-1.53-.3t-1.18-1.01l-21.52-27.48q.17 1.89.17 3.48v25.31h-6.75v-41.21h4.02q.48 0 .84.04.35.04.62.17t.53.37q.26.25.57.64l21.6 27.59q-.08-1-.14-1.96-.06-.97-.06-1.8zm27.76 11.51q3.25 0 5.92 1.06 2.66 1.05 4.56 2.99 1.89 1.94 2.92 4.73 1.02 2.79 1.02 6.24 0 3.48-1.02 6.27-1.03 2.8-2.92 4.76-1.9 1.97-4.56 3.02-2.67 1.06-5.92 1.06-3.27 0-5.95-1.06-2.68-1.05-4.58-3.02-1.89-1.96-2.93-4.76-1.04-2.79-1.04-6.27 0-3.45 1.04-6.24t2.93-4.73q1.9-1.94 4.58-2.99 2.68-1.06 5.95-1.06m0 24.71q3.65 0 5.4-2.45 1.76-2.45 1.76-7.18t-1.76-7.21q-1.75-2.48-5.4-2.48-3.7 0-5.48 2.49-1.78 2.5-1.78 7.2t1.78 7.17q1.78 2.46 5.48 2.46m63.07-4.73q.63 0 1.12.49l3.02 3.27q-2.51 3.11-6.17 4.76-3.67 1.66-8.8 1.66-4.58 0-8.25-1.57-3.66-1.57-6.25-4.36-2.6-2.8-3.98-6.67-1.38-3.88-1.38-8.47 0-4.64 1.48-8.5t4.18-6.66q2.69-2.79 6.42-4.34 3.74-1.56 8.27-1.56 4.5 0 7.99 1.48 3.49 1.49 5.94 3.88l-2.56 3.56q-.23.35-.58.6-.36.26-.99.26-.43 0-.88-.24-.46-.25-1-.6-.54-.36-1.25-.79-.72-.42-1.66-.78t-2.18-.6-2.86-.24q-2.76 0-5.06.98-2.29.99-3.95 2.85-1.65 1.87-2.56 4.56-.91 2.7-.91 6.14 0 3.48.98 6.19t2.66 4.56q1.69 1.85 3.97 2.83 2.28.99 4.9.99 1.57 0 2.83-.17 1.27-.17 2.34-.54 1.07-.38 2.02-.96.96-.58 1.9-1.44.28-.26.6-.41.31-.16.65-.16m21.24-19.98q3.25 0 5.91 1.06 2.66 1.05 4.56 2.99t2.92 4.73q1.03 2.79 1.03 6.24 0 3.48-1.03 6.27-1.02 2.8-2.92 4.76-1.9 1.97-4.56 3.02-2.66 1.06-5.91 1.06-3.28 0-5.96-1.06-2.68-1.05-4.57-3.02-1.9-1.96-2.94-4.76-1.04-2.79-1.04-6.27 0-3.45 1.04-6.24t2.94-4.73q1.89-1.94 4.57-2.99 2.68-1.06 5.96-1.06m0 24.71q3.64 0 5.4-2.45 1.75-2.45 1.75-7.18t-1.75-7.21q-1.76-2.48-5.4-2.48-3.71 0-5.49 2.49-1.78 2.5-1.78 7.2t1.78 7.17q1.78 2.46 5.49 2.46m40.61-24.25h5.56l-11.6 29.24h-6.39l-11.6-29.24h5.82q.8 0 1.32.37.53.37.7.94l5.64 15.62q.46 1.37.8 2.68t.6 2.62q.29-1.31.63-2.62t.82-2.68l5.76-15.62q.2-.57.71-.94.52-.37 1.23-.37m14.85 11.26h13.28q0-1.37-.39-2.58-.38-1.21-1.15-2.13-.77-.91-1.95-1.44-1.19-.52-2.75-.52-3.05 0-4.81 1.74-1.75 1.73-2.23 4.93m17.95 4.24h-18.1q.18 2.25.8 3.89.63 1.64 1.66 2.71 1.02 1.07 2.43 1.6 1.41.52 3.12.52t2.95-.4q1.24-.39 2.17-.88.93-.48 1.62-.88.7-.4 1.36-.4.88 0 1.31.65l2.02 2.57q-1.17 1.37-2.62 2.29-1.45.93-3.04 1.49-1.58.55-3.22.78-1.63.23-3.17.23-3.05 0-5.68-1.01-2.62-1.02-4.56-3-1.93-1.98-3.04-4.9-1.12-2.92-1.12-6.77 0-2.99.97-5.63.97-2.63 2.78-4.58 1.81-1.96 4.42-3.1t5.88-1.14q2.77 0 5.11.89 2.33.88 4.01 2.58 1.69 1.69 2.64 4.16.96 2.46.96 5.63 0 1.59-.35 2.15-.34.55-1.31.55m13.14-13.73.43 3.3q1.37-2.62 3.25-4.12 1.88-1.49 4.44-1.49 2.03 0 3.25.88l-.45 5.27q-.15.52-.42.73t-.72.21q-.43 0-1.27-.14t-1.64-.14q-1.17 0-2.08.34t-1.64.98q-.73.65-1.28 1.56-.56.91-1.04 2.08v18.01h-7.04v-29.24h4.13q1.08 0 1.51.38.43.39.57 1.39"/></svg>